<svg width="146" height="131" viewBox="0 0 146 131" fill="none" xmlns="http://www.w3.org/2000/svg">
<g clip-path="url(#clip0_173_604)">
<path d="M4.33423 15.6732C5.31493 14.418 5.59195 12.7207 6.80556 11.6839C7.53863 10.8489 8.96556 10.8818 9.65942 11.7496C10.1155 12.6119 9.61531 13.6652 9.35789 14.5111C9.10537 15.1442 8.62482 15.3461 7.91136 15.3296C7.42101 15.9572 6.93067 16.5848 6.2074 16.9941C5.23651 17.8235 3.35845 16.7155 4.33423 15.6732Z" fill="#D7E5BE"/>
<path d="M18.5618 7.4825C19.7803 6.23281 21.2366 4.98859 22.688 3.95722C24.1395 2.92585 26.0714 1.69258 27.7362 1.73091C28.6875 1.75282 29.1386 2.82799 28.4154 3.23726C27.2017 4.2741 25.2943 4.44314 23.8477 5.26167C22.1634 6.07472 20.9498 7.11157 19.4934 8.35578C18.7702 8.76505 18.0763 7.89724 18.5618 7.4825Z" fill="#D7E5BE"/>
<path d="M40.0833 2.86715C38.1905 2.39765 36.055 2.13552 33.9147 2.08624C33.2012 2.06982 33.2257 1.00559 33.9392 1.02202C36.793 1.08773 42.5301 -0.057923 44.3739 2.54002C44.8397 2.97666 44.1116 3.59877 43.6359 3.58782C42.4468 3.56044 41.2675 3.10737 40.0833 2.86715Z" fill="#D7E5BE"/>
<path d="M48.846 14.9944C49.4001 11.5999 50.1822 8.63647 48.3531 5.39999C48.1251 4.96882 48.6056 4.76693 48.8336 5.19809C51.3762 8.451 52.482 12.0968 50.2583 15.6658C49.763 16.5063 48.5935 15.6275 48.846 14.9944Z" fill="#D7E5BE"/>
<path d="M36.1265 30.0346C36.8792 28.3482 38.3355 27.104 39.559 25.6415C41.0251 23.9716 42.4863 22.5145 44.1854 21.0629C44.6708 20.6482 45.6074 21.3086 45.1171 21.9362C43.6607 23.1804 42.6751 24.6484 41.4517 26.111C40.2283 27.5735 39.2329 29.4672 37.7766 30.7114C37.0484 31.3335 35.6313 30.875 36.1265 30.0346Z" fill="#D7E5BE"/>
<path d="M18.675 43.9012C20.428 40.1083 24.5542 36.583 27.9475 33.8927C28.6707 33.4834 29.3695 34.1384 28.8791 34.7659C27.1752 36.4304 25.4663 38.3077 23.9953 40.1904C22.7719 41.653 21.7814 43.3338 20.3251 44.578C19.3591 45.1947 18.4225 44.5342 18.675 43.9012Z" fill="#D7E5BE"/>
<path d="M9.43943 62.6418C9.28983 58.8051 11.0428 55.0122 12.5481 51.6395C12.8007 51.0065 13.747 51.2412 13.7323 51.8797C12.4599 55.4707 11.901 59.0782 11.5798 62.6911C11.3175 63.7498 9.41493 63.706 9.43943 62.6418Z" fill="#D7E5BE"/>
<path d="M16.9592 77.0828C15.5568 75.9858 14.1641 74.463 13.0044 73.1585C12.0777 72.0724 13.534 70.8282 14.7035 71.7069C15.8681 72.7989 17.2705 73.8956 18.673 74.9927C20.0754 76.0901 22.1913 77.2033 23.3461 78.7206C23.807 79.3701 23.0739 80.2051 22.1276 79.9703C20.225 79.9265 18.3567 78.3928 16.9592 77.0828Z" fill="#D7E5BE"/>
<path d="M29.7084 81.4228C28.7571 81.4009 28.7914 79.9113 29.7427 79.9332C32.1258 79.7751 34.276 79.3987 36.6641 79.0274C38.8143 78.651 40.9791 77.6361 43.3574 77.6909C44.5465 77.7182 44.9878 79.2191 43.7889 79.6178C39.7018 81.4403 33.9843 81.7342 29.7084 81.4228Z" fill="#D7E5BE"/>
<path d="M53.9391 72.8235C55.6284 71.7972 57.3177 70.7717 59.0069 69.7455C60.6913 68.9327 62.3903 67.4812 64.2978 67.3118C65.2491 67.3337 65.4673 68.1905 65.2148 68.8236C64.467 70.2971 62.3119 70.8863 60.8703 71.492C58.9432 72.5124 56.7832 73.3145 54.8561 74.335C53.6572 74.7336 52.9732 73.4401 53.9391 72.8235Z" fill="#D7E5BE"/>
<path d="M71.5451 62.581C73.4918 60.7092 75.4287 59.2631 77.5985 58.0353C79.7683 56.8075 82.8992 55.176 85.5054 55.6619C86.6896 55.9021 86.9029 56.9718 85.9369 57.5884C84.2477 58.6143 81.8646 58.7724 79.9473 59.3672C77.0738 60.1528 74.4235 61.5825 72.0061 63.2305C71.7584 63.6507 71.0597 62.9958 71.5451 62.581Z" fill="#D7E5BE"/>
<path d="M95.131 50.9853C97.0777 49.1135 99.2524 47.6729 101.898 46.4561C104.543 45.2392 107.907 43.826 110.751 44.3174C111.698 44.5521 111.668 45.8292 110.95 46.0256C108.78 47.2534 105.926 47.1877 103.528 47.9843C100.893 48.7755 98.2423 50.2051 95.8249 51.8531C95.3394 52.2679 94.4028 51.6074 95.131 50.9853Z" fill="#D7E5BE"/>
<path d="M131.522 51.6102C130.606 50.0984 129.922 48.8049 128.519 47.7078C126.641 46.5998 123.797 46.1084 121.657 46.0591C120.943 46.0427 120.967 44.9784 121.681 44.9949C126.21 44.6732 134.038 45.7053 133.673 51.2338C133.415 52.0797 131.979 52.4725 131.522 51.6102Z" fill="#D7E5BE"/>
<path d="M139.327 74.3636C139.143 72.0171 139.672 69.6864 139.726 67.3455C139.557 64.3598 138.669 61.5709 136.82 59.1858C136.593 58.7547 137.311 58.5583 137.544 58.7766C141.246 63.3339 144.433 69.5835 141.69 75.0572C140.952 76.1047 139.302 75.4278 139.327 74.3636Z" fill="#D7E5BE"/>
<path d="M122.739 92.0831C123.724 90.6151 125.181 89.3709 126.409 87.6955C127.394 86.2275 127.909 84.5353 128.186 82.8384C128.449 81.7793 130.113 81.8176 130.089 82.8822C130.239 86.7189 128.699 91.5814 124.607 93.6168C123.398 94.4411 122.238 93.1363 122.739 92.0831Z" fill="#D7E5BE"/>
<path d="M108.268 100.481C111.423 97.7854 114.821 94.8825 118.671 93.0542C119.875 92.4431 120.554 93.9494 119.588 94.566C116.204 96.8307 113.738 100.607 109.656 102.217C108.462 102.402 107.297 101.311 108.268 100.481Z" fill="#D7E5BE"/>
<path d="M108.138 116.45C106.726 115.779 105.814 114.054 105.13 112.761C104.451 111.255 104.253 109.546 104.292 107.844C104.316 106.779 105.981 106.818 105.956 107.882C105.922 109.372 106.369 110.66 107.053 111.953C107.742 113.034 108.911 113.913 109.6 114.993C110.293 115.861 109.08 116.898 108.138 116.45Z" fill="#D7E5BE"/>
<path d="M117.12 129.435C111.718 126.329 105.579 124.271 99.9302 121.585C97.3435 120.248 99.8002 116.897 102.392 118.022C107.104 120.047 112.059 121.864 116.519 124.523C116.801 122.613 117.083 120.702 117.37 118.579C117.627 117.733 117.661 116.244 118.628 115.627L118.87 115.42C118.87 115.42 118.875 115.207 119.113 115.213C119.598 114.798 120.54 115.245 120.53 115.671C120.763 115.889 120.758 116.103 120.748 116.528C120.961 117.598 120.699 118.656 120.67 119.933C120.368 122.695 120.071 125.244 120.246 128.016C120.454 129.298 118.532 130.106 117.12 129.435Z" fill="#D7E5BE"/>
</g>
<defs>
<clipPath id="clip0_173_604">
<rect width="127" height="141.903" fill="white" transform="matrix(-0.0230188 0.999735 0.999735 0.0230188 3.42334 0)"/>
</clipPath>
</defs>
</svg>
