<svg width="137" height="40" viewBox="0 0 137 40" fill="none" xmlns="http://www.w3.org/2000/svg">
<g clip-path="url(#clip0_173_566)">
<g clip-path="url(#clip1_173_566)">
<path d="M16.0367 17.083H19.2751V6.30898C19.2751 5.53349 19.6228 4.78977 20.2418 4.24142C20.8607 3.69306 21.7002 3.385 22.5756 3.385C23.4509 3.385 24.2904 3.69306 24.9094 4.24142C25.5284 4.78977 25.8761 5.53349 25.8761 6.30898V6.88002L27.7632 5.22883C28.2313 4.82196 28.7528 4.46626 29.3164 4.16932C28.8006 2.85702 27.8102 1.73229 26.4989 0.969772C25.1876 0.20725 23.6288 -0.150407 22.0646 -0.0476689C20.5004 0.0550687 19.0182 0.612452 17.8481 1.53794C16.6781 2.46343 15.8857 3.70525 15.594 5.07059L15.5319 5.28387C15.5319 5.35955 15.5319 5.42835 15.493 5.50403C15.4542 5.57971 15.493 5.71042 15.493 5.81362C15.4893 5.83182 15.4893 5.85047 15.493 5.86866C15.493 5.93746 15.493 6.00626 15.493 6.08194C15.493 6.15762 15.493 6.21954 15.493 6.28834V13.6912H12.2158L16.0367 17.083Z" fill="#93E14A"/>
<path d="M42.7515 17.9705H29.5105L27.2274 19.9932L34.3487 26.3021L35.8242 27.6093L35.9485 27.7193V27.7606L35.9873 27.8088L36.0262 27.8501L36.0805 27.9189V27.9601C36.078 27.9761 36.078 27.9923 36.0805 28.0083C36.0965 28.0469 36.1174 28.0839 36.1427 28.1184C36.1417 28.1344 36.1417 28.1505 36.1427 28.1665C36.1718 28.2203 36.1978 28.2754 36.2203 28.3317V28.3867V28.4555V28.5381C36.2238 28.5724 36.2238 28.6069 36.2203 28.6413V28.6963C36.224 28.7536 36.224 28.811 36.2203 28.8683C36.2239 28.8888 36.2239 28.9097 36.2203 28.9302V28.9784C36.2283 29.0975 36.2283 29.217 36.2203 29.3361C36.228 29.4553 36.228 29.5747 36.2203 29.6939V29.7352C36.2203 29.7352 36.2203 29.7696 36.2203 29.7833C36.2203 29.7971 36.2203 29.9003 36.1815 29.9484C36.1852 29.9759 36.1852 30.0036 36.1815 30.031C36.1815 30.031 36.1815 30.031 36.1815 30.0723C36.1815 30.1136 36.1815 30.203 36.1194 30.2718C36.1227 30.2854 36.1227 30.2995 36.1194 30.3131C36.1194 30.375 36.065 30.4438 36.0339 30.5057L35.9873 30.5952L35.9174 30.7052C35.9022 30.7342 35.884 30.7618 35.8631 30.7878V30.8222L35.7777 30.9323C35.7484 30.9741 35.7146 31.0133 35.6767 31.0492L35.4825 31.235L35.3971 31.3038L35.3117 31.3726C34.6635 31.8582 33.8294 32.1046 32.9819 32.0606C32.1466 32.0052 31.3627 31.6824 30.7764 31.1524L30.3726 30.7878V33.7118C30.3702 34.2843 30.292 34.8547 30.1396 35.4111C31.6687 36.3103 33.5303 36.6524 35.3369 36.3662C37.1435 36.0801 38.756 35.1877 39.8387 33.8749C40.9214 32.562 41.3908 30.9298 41.1494 29.3181C40.9079 27.7063 39.9741 26.2391 38.5423 25.2219L34.1701 21.3279H42.7126C43.0539 20.2306 43.0673 19.0737 42.7515 17.9705Z" fill="#93E14A"/>
<path d="M5.03234 12.6454C5.10223 12.7968 5.17213 12.9481 5.25755 13.0995C5.33521 13.2302 5.41287 13.3609 5.4983 13.4916L5.56819 13.5948L5.65362 13.7118L5.71574 13.7944C5.97376 14.1427 6.27316 14.4657 6.60883 14.7575L12.4954 19.9794L10.1656 22.0434H15.6018L17.8617 20.0207L9.31914 12.384L9.19488 12.267L9.15605 12.2188V12.1776C9.13538 12.1563 9.11717 12.1333 9.10169 12.1088V12.0744V12.04V12.0056C9.07531 11.9657 9.05196 11.9243 9.0318 11.8817C9.0318 11.8817 9.0318 11.8473 9.0318 11.8336C9.00267 11.7821 8.97674 11.7293 8.95414 11.6753V11.6203C8.95414 11.6203 8.95414 11.5653 8.95414 11.5309V11.4758C8.95414 11.4414 8.95414 11.4001 8.95414 11.3657C8.95414 11.3657 8.95414 11.3245 8.95414 11.3038C8.95414 11.2832 8.95414 11.2075 8.95414 11.1593C8.95788 11.1319 8.95788 11.1042 8.95414 11.0768C8.95747 11.0585 8.95747 11.04 8.95414 11.0217C8.94618 10.9072 8.94618 10.7923 8.95414 10.6777C8.94641 10.5609 8.94641 10.4437 8.95414 10.3269C8.95734 10.3109 8.95734 10.2946 8.95414 10.2787C8.95414 10.2787 8.95414 10.2305 8.95414 10.203V10.0792V9.99662C8.95762 9.97841 8.95762 9.9598 8.95414 9.94158L9.01627 9.76271C9.01627 9.76271 9.01627 9.76271 9.01627 9.72143V9.67327C9.03878 9.61478 9.0647 9.55737 9.09393 9.50127V9.45999C9.1088 9.42432 9.12698 9.3898 9.14829 9.35679L9.19488 9.27423C9.2083 9.24235 9.22659 9.21226 9.24925 9.18479V9.14351L9.31914 9.05407L9.4201 8.93711C9.34667 8.71611 9.31261 8.48631 9.31914 8.256L9.40456 8.1872L9.48999 8.12528C9.5337 8.08515 9.58334 8.05044 9.63754 8.02208C10.2702 7.58835 11.0592 7.37297 11.8578 7.416C12.6563 7.45903 13.41 7.75753 13.9787 8.256L14.4524 8.66879V6.30897C14.4518 5.73665 14.5273 5.16625 14.6776 4.60963C13.5449 4.14114 12.2933 3.94414 11.0477 4.03831C9.80217 4.13247 8.6063 4.51451 7.57957 5.14626L7.42425 5.24258C7.3 5.31826 7.18351 5.4077 7.05925 5.49714L6.98936 5.53842L6.63212 5.83426C6.55581 5.89499 6.48323 5.95929 6.41468 6.0269L6.29819 6.19201H6.21276V6.26081L6.1584 6.31585L6.01085 6.48097L5.84776 6.67361L5.7701 6.77681L5.68468 6.88001L5.61479 6.97633L5.56819 7.04513L5.43617 7.21025L5.31191 7.40288V7.44416C5.28038 7.5126 5.24407 7.57924 5.20319 7.64368L5.0867 7.87072C5.0867 7.9464 5.01681 8.02208 4.98575 8.09776V8.16656L4.91585 8.35232C4.89414 8.40871 4.87599 8.46613 4.86149 8.52432C4.85802 8.56554 4.85802 8.60693 4.86149 8.64815C4.81489 8.79263 4.78383 8.93023 4.75277 9.07471C4.75277 9.07471 4.75277 9.11599 4.75277 9.14351C4.7565 9.1985 4.7565 9.25364 4.75277 9.30863C4.75603 9.34067 4.75603 9.37291 4.75277 9.40495C4.54534 10.3716 4.59318 11.3676 4.89255 12.3152L5.03234 12.6454Z" fill="#93E14A"/>
<path d="M28.734 5.66914L28.5476 5.83426L22.6533 11.0561L20.3623 8.99216V13.8081L21.5117 14.9295L22.5756 15.8721L25.8761 12.9481L29.697 9.56319L31.1725 8.256L31.421 8.06336L31.685 7.89825L31.9258 7.76753L32.1044 7.69185H32.1432L32.2597 7.65057H32.3607H32.3995H32.4461L32.6325 7.60241H32.6868H32.7878H32.8965H33.1217H33.2382H33.4168C34.0513 7.59288 34.6754 7.74599 35.214 8.0433C35.7526 8.34062 36.1827 8.76947 36.4527 9.27827C36.7226 9.78706 36.8208 10.3541 36.7355 10.9112C36.6502 11.4683 36.385 11.9917 35.9718 12.4184C35.9087 12.4881 35.8413 12.5547 35.7699 12.6179L34.2866 13.9251H29.6271V10.8222L25.8062 14.2072V17.083H35.9019L38.5035 14.7782C39.7056 13.7256 40.4442 12.3276 40.5865 10.8356C40.7289 9.34363 40.2657 7.85561 39.2801 6.63922L38.9617 6.28146L38.8918 6.19202C38.7835 6.07319 38.6668 5.96059 38.5424 5.8549C37.3998 4.83746 35.8974 4.19866 34.2866 4.04548C33.9505 4.02488 33.6132 4.02488 33.2771 4.04548H33.2149H32.9664H32.8189H32.6713H32.5548H32.3607H32.2364H32.0889L31.8404 4.18308C31.7193 4.20329 31.5999 4.23087 31.4831 4.26563L31.1958 4.34131L30.6988 4.50643H30.6522C30.4736 4.57523 30.3027 4.65091 30.1396 4.72659C29.9577 4.80907 29.7813 4.90096 29.6115 5.00179H29.5494L29.4329 5.07059L29.2698 5.17379L29.0058 5.35955C28.9077 5.45738 28.8169 5.5608 28.734 5.66914Z" fill="#93E14A"/>
<path d="M32.9354 26.309L29.1145 22.9241H25.8761V33.7118C25.8761 34.4873 25.5284 35.231 24.9094 35.7794C24.2905 36.3277 23.451 36.6358 22.5756 36.6358C21.7002 36.6358 20.8607 36.3277 20.2418 35.7794C19.6228 35.231 19.2751 34.4873 19.2751 33.7118V33.1202L17.3957 34.7782C16.9292 35.1847 16.4075 35.5383 15.8425 35.8309C16.369 37.1278 17.3604 38.2363 18.6651 38.987C19.9699 39.7377 21.5162 40.0892 23.0678 39.9878C24.6193 39.8864 26.0907 39.3376 27.2569 38.4254C28.4232 37.5132 29.2202 36.2878 29.5261 34.9365C29.5297 34.8929 29.5297 34.8493 29.5261 34.8057C29.5261 34.8057 29.5261 34.7576 29.5261 34.7369V34.5718C29.5261 34.5718 29.5261 34.5237 29.5261 34.503C29.53 34.4733 29.53 34.4433 29.5261 34.4136C29.5299 34.3747 29.5299 34.3355 29.5261 34.2966L29.5258 34.299C29.5258 34.202 29.5258 34.202 29.5258 34.1049L29.5261 34.104C29.53 34.0674 29.53 34.0305 29.5261 33.9939C29.5261 33.9182 29.5261 33.8357 29.5261 33.76V26.309H32.9354Z" fill="#93E14A"/>
<path d="M16.1376 34.5787L16.456 34.3379L16.6424 34.1797L22.5756 28.8959L24.9054 30.9598V26.1439L23.6784 25.05L22.6144 24.1074L19.3139 27.0245L15.4542 30.4439L13.9787 31.751L13.7302 31.9506L13.4662 32.1226H13.4273L13.1788 32.2533L13.0002 32.329H12.9148H12.8682H12.8216L12.6352 32.3909H12.5808H12.4799L12.3246 32.4253H12.2081H12.1149H12.0372H11.9285H11.7344C11.1146 32.4076 10.5129 32.2355 9.9984 31.9289C9.48388 31.6222 9.07728 31.1934 8.8252 30.6914C8.57312 30.1895 8.48575 29.6348 8.57311 29.0909C8.66048 28.547 8.91903 28.0359 9.31915 27.6162L9.79287 27.2034H7.12139C6.47505 27.2017 5.83119 27.1325 5.2032 26.997C4.71996 27.905 4.48883 28.9022 4.52908 29.9054C4.56934 30.9086 4.87982 31.8887 5.43462 32.764C5.98941 33.6392 6.77244 34.3843 7.71837 34.9369C8.6643 35.4896 9.74569 35.8338 10.8723 35.9409H11.1907C11.5191 35.9615 11.8487 35.9615 12.177 35.9409H12.3479H12.4799H12.5653H12.7905H12.8837H13.0235H13.0856H13.2642L13.5982 35.8652L13.9321 35.7689L14.1806 35.6864H14.2272L14.4058 35.6176L14.5146 35.5763L14.7553 35.363L14.8407 35.3217L15.0271 35.2392H15.0892L15.3222 35.1222H15.361L15.594 34.9915L15.7105 34.9158L15.8814 34.8126L16.1376 34.5787Z" fill="#93E14A"/>
<path d="M7.12164 26.309H15.4545V29.1779L19.2753 25.793V22.9241H7.12164C6.67525 22.9433 6.22912 22.882 5.81028 22.7439C5.39145 22.6057 5.00863 22.3937 4.68505 22.1206C4.36147 21.8475 4.10386 21.5191 3.92784 21.1552C3.75182 20.7912 3.66106 20.3995 3.66106 20.0035C3.66106 19.6076 3.75182 19.2158 3.92784 18.8519C4.10386 18.488 4.36147 18.1595 4.68505 17.8864C5.00863 17.6133 5.39145 17.4013 5.81028 17.2632C6.22912 17.1251 6.67525 17.0638 7.12164 17.083H7.76621L5.90238 15.4112C5.44509 15.0076 5.04362 14.5572 4.70643 14.0696C3.17061 14.5565 1.87036 15.4963 1.02354 16.7314C0.176717 17.9666 -0.165222 19.422 0.0550149 20.8539C0.275252 22.2858 1.04428 23.6071 2.23325 24.5965C3.42222 25.5859 4.95889 26.1832 6.58579 26.2884L7.12164 26.309Z" fill="#93E14A"/>
</g>
</g>
<path d="M52.2 27V13H61.06V15.76H54.96V18.12H59.72V20.88H54.96V24.24H61.06V27H52.2ZM68.8427 23.84L71.3227 25.18C70.8627 25.8067 70.286 26.31 69.5927 26.69C68.8993 27.07 68.1427 27.26 67.3227 27.26C66.4027 27.26 65.5627 27.0233 64.8027 26.55C64.0493 26.0767 63.446 25.4433 62.9927 24.65C62.546 23.85 62.3227 22.9667 62.3227 22C62.3227 21.2667 62.4527 20.5833 62.7127 19.95C62.9727 19.31 63.3293 18.75 63.7827 18.27C64.2427 17.7833 64.776 17.4033 65.3827 17.13C65.9893 16.8567 66.636 16.72 67.3227 16.72C68.1427 16.72 68.8993 16.91 69.5927 17.29C70.286 17.67 70.8627 18.18 71.3227 18.82L68.8427 20.16C68.636 19.94 68.3993 19.7733 68.1327 19.66C67.8727 19.54 67.6027 19.48 67.3227 19.48C66.896 19.48 66.5127 19.5967 66.1727 19.83C65.8393 20.0633 65.5727 20.3733 65.3727 20.76C65.1793 21.14 65.0827 21.5533 65.0827 22C65.0827 22.44 65.1827 22.85 65.3827 23.23C65.5827 23.61 65.8493 23.9167 66.1827 24.15C66.5227 24.3833 66.9027 24.5 67.3227 24.5C67.6093 24.5 67.8827 24.44 68.1427 24.32C68.4027 24.2 68.636 24.04 68.8427 23.84ZM77.1469 27.26C76.2269 27.26 75.3869 27.0233 74.6269 26.55C73.8735 26.0767 73.2702 25.4433 72.8169 24.65C72.3702 23.85 72.1469 22.9667 72.1469 22C72.1469 21.2667 72.2769 20.5833 72.5369 19.95C72.7969 19.31 73.1535 18.75 73.6069 18.27C74.0669 17.7833 74.6002 17.4033 75.2069 17.13C75.8135 16.8567 76.4602 16.72 77.1469 16.72C78.0669 16.72 78.9035 16.9567 79.6569 17.43C80.4169 17.9033 81.0202 18.54 81.4669 19.34C81.9202 20.14 82.1469 21.0267 82.1469 22C82.1469 22.7267 82.0169 23.4067 81.7569 24.04C81.4969 24.6733 81.1369 25.2333 80.6769 25.72C80.2235 26.2 79.6935 26.5767 79.0869 26.85C78.4869 27.1233 77.8402 27.26 77.1469 27.26ZM77.1469 24.5C77.5735 24.5 77.9569 24.3867 78.2969 24.16C78.6369 23.9267 78.9035 23.62 79.0969 23.24C79.2902 22.86 79.3869 22.4467 79.3869 22C79.3869 21.54 79.2835 21.12 79.0769 20.74C78.8769 20.3533 78.6069 20.0467 78.2669 19.82C77.9269 19.5933 77.5535 19.48 77.1469 19.48C76.7269 19.48 76.3469 19.5967 76.0069 19.83C75.6669 20.0633 75.3969 20.37 75.1969 20.75C75.0035 21.13 74.9069 21.5467 74.9069 22C74.9069 22.4733 75.0069 22.9 75.2069 23.28C75.4135 23.6533 75.6869 23.95 76.0269 24.17C76.3669 24.39 76.7402 24.5 77.1469 24.5ZM89.0283 27.26C88.2416 27.26 87.4883 27.1367 86.7683 26.89C86.0549 26.6433 85.4283 26.2867 84.8883 25.82C84.3549 25.3533 83.9716 24.8 83.7383 24.16L86.3283 23.2C86.4083 23.4267 86.5749 23.64 86.8283 23.84C87.0816 24.0333 87.3983 24.1933 87.7783 24.32C88.1583 24.44 88.5749 24.5 89.0283 24.5C89.4616 24.5 89.8683 24.4367 90.2483 24.31C90.6349 24.1767 90.9449 23.9933 91.1783 23.76C91.4183 23.5267 91.5383 23.2533 91.5383 22.94C91.5383 22.6267 91.4149 22.3667 91.1683 22.16C90.9216 21.9533 90.6049 21.79 90.2183 21.67C89.8316 21.5433 89.4349 21.4467 89.0283 21.38C88.0216 21.2333 87.1183 20.9967 86.3183 20.67C85.5249 20.3367 84.8983 19.88 84.4383 19.3C83.9783 18.7133 83.7483 17.97 83.7483 17.07C83.7483 16.2033 83.9916 15.4467 84.4783 14.8C84.9716 14.1533 85.6183 13.65 86.4183 13.29C87.2249 12.93 88.0949 12.75 89.0283 12.75C89.8016 12.75 90.5483 12.8733 91.2683 13.12C91.9883 13.3667 92.6149 13.7233 93.1483 14.19C93.6883 14.6567 94.0749 15.2167 94.3083 15.87L91.7183 16.81C91.6383 16.5833 91.4716 16.3733 91.2183 16.18C90.9649 15.9867 90.6483 15.83 90.2683 15.71C89.8883 15.59 89.4749 15.53 89.0283 15.53C88.6016 15.5233 88.1949 15.5867 87.8083 15.72C87.4283 15.8533 87.1149 16.0367 86.8683 16.27C86.6283 16.5033 86.5083 16.77 86.5083 17.07C86.5083 17.4633 86.6216 17.76 86.8483 17.96C87.0816 18.16 87.3883 18.3033 87.7683 18.39C88.1483 18.4767 88.5683 18.5533 89.0283 18.62C89.9749 18.76 90.8483 19.01 91.6483 19.37C92.4483 19.7233 93.0883 20.1967 93.5683 20.79C94.0549 21.3767 94.2983 22.0933 94.2983 22.94C94.2983 23.8067 94.0549 24.5633 93.5683 25.21C93.0816 25.8567 92.4383 26.36 91.6383 26.72C90.8383 27.08 89.9683 27.26 89.0283 27.26ZM102.065 23.84L104.545 25.18C104.085 25.8067 103.509 26.31 102.815 26.69C102.122 27.07 101.365 27.26 100.545 27.26C99.6253 27.26 98.7853 27.0233 98.0253 26.55C97.272 26.0767 96.6686 25.4433 96.2153 24.65C95.7686 23.85 95.5453 22.9667 95.5453 22C95.5453 21.2667 95.6753 20.5833 95.9353 19.95C96.1953 19.31 96.552 18.75 97.0053 18.27C97.4653 17.7833 97.9986 17.4033 98.6053 17.13C99.212 16.8567 99.8586 16.72 100.545 16.72C101.365 16.72 102.122 16.91 102.815 17.29C103.509 17.67 104.085 18.18 104.545 18.82L102.065 20.16C101.859 19.94 101.622 19.7733 101.355 19.66C101.095 19.54 100.825 19.48 100.545 19.48C100.119 19.48 99.7353 19.5967 99.3953 19.83C99.062 20.0633 98.7953 20.3733 98.5953 20.76C98.402 21.14 98.3053 21.5533 98.3053 22C98.3053 22.44 98.4053 22.85 98.6053 23.23C98.8053 23.61 99.072 23.9167 99.4053 24.15C99.7453 24.3833 100.125 24.5 100.545 24.5C100.832 24.5 101.105 24.44 101.365 24.32C101.625 24.2 101.859 24.04 102.065 23.84ZM106.351 27L106.341 17H109.101L109.111 17.74C109.444 17.42 109.834 17.17 110.281 16.99C110.734 16.81 111.211 16.72 111.711 16.72C112.077 16.72 112.444 16.7733 112.811 16.88L111.721 19.67C111.481 19.57 111.237 19.52 110.991 19.52C110.644 19.52 110.327 19.6033 110.041 19.77C109.754 19.9367 109.527 20.1633 109.361 20.45C109.194 20.73 109.111 21.0467 109.111 21.4V27H106.351ZM120.77 17H123.53V27H120.76L120.63 25.96C120.37 26.3467 120.037 26.66 119.63 26.9C119.224 27.14 118.747 27.26 118.2 27.26C117.454 27.26 116.757 27.12 116.11 26.84C115.464 26.56 114.894 26.1733 114.4 25.68C113.907 25.1867 113.52 24.6167 113.24 23.97C112.967 23.3167 112.83 22.6167 112.83 21.87C112.83 21.1567 112.96 20.49 113.22 19.87C113.48 19.25 113.847 18.7033 114.32 18.23C114.794 17.7567 115.337 17.3867 115.95 17.12C116.57 16.8533 117.237 16.72 117.95 16.72C118.564 16.72 119.114 16.85 119.6 17.11C120.094 17.37 120.524 17.7 120.89 18.1L120.77 17ZM118.13 24.61C118.584 24.61 118.994 24.4933 119.36 24.26C119.727 24.0267 120.017 23.7133 120.23 23.32C120.444 22.92 120.55 22.48 120.55 22C120.55 21.5133 120.444 21.0733 120.23 20.68C120.017 20.2867 119.727 19.9733 119.36 19.74C118.994 19.5067 118.584 19.39 118.13 19.39C117.67 19.39 117.254 19.5067 116.88 19.74C116.507 19.9733 116.21 20.29 115.99 20.69C115.77 21.0833 115.66 21.52 115.66 22C115.66 22.48 115.77 22.92 115.99 23.32C116.217 23.7133 116.517 24.0267 116.89 24.26C117.264 24.4933 117.677 24.61 118.13 24.61ZM128.3 32H125.54V17H128.3V18.08C128.62 17.6867 129 17.3667 129.44 17.12C129.88 16.8667 130.393 16.74 130.98 16.74C131.707 16.74 132.387 16.8767 133.02 17.15C133.66 17.4233 134.22 17.8033 134.7 18.29C135.18 18.77 135.557 19.3267 135.83 19.96C136.103 20.5933 136.24 21.2733 136.24 22C136.24 22.7267 136.103 23.41 135.83 24.05C135.557 24.69 135.18 25.2533 134.7 25.74C134.22 26.22 133.66 26.5967 133.02 26.87C132.387 27.1433 131.707 27.28 130.98 27.28C130.393 27.28 129.88 27.1533 129.44 26.9C129 26.6467 128.62 26.3267 128.3 25.94V32ZM130.94 19.39C130.487 19.39 130.077 19.51 129.71 19.75C129.35 19.9833 129.063 20.2967 128.85 20.69C128.643 21.0833 128.54 21.52 128.54 22C128.54 22.48 128.643 22.92 128.85 23.32C129.063 23.7133 129.35 24.0267 129.71 24.26C130.077 24.4933 130.487 24.61 130.94 24.61C131.393 24.61 131.807 24.4933 132.18 24.26C132.56 24.0267 132.86 23.7133 133.08 23.32C133.307 22.9267 133.42 22.4867 133.42 22C133.42 21.5267 133.31 21.0933 133.09 20.7C132.87 20.3 132.57 19.9833 132.19 19.75C131.817 19.51 131.4 19.39 130.94 19.39Z" fill="black"/>
<defs>
<clipPath id="clip0_173_566">
<rect width="43" height="40" fill="white"/>
</clipPath>
<clipPath id="clip1_173_566">
<rect width="43" height="40.0069" fill="white"/>
</clipPath>
</defs>
</svg>
