<svg width="48" height="48" viewBox="0 0 48 48" fill="none" xmlns="http://www.w3.org/2000/svg">
  <path
    d="M24 45C27.6172 45 31.1731 44.0657 34.3231 42.2876C37.4731 40.5094 40.1104 37.9478 41.9795 34.8508C43.8485 31.7539 44.8859 28.2267 44.9911 24.611C45.0963 20.9953 44.2658 17.4138 42.5801 14.2134C42.486 14.0392 42.3269 13.9093 42.1374 13.852C41.9479 13.7946 41.7435 13.8146 41.5686 13.9073C41.3938 14.0001 41.2627 14.1583 41.204 14.3473C41.1452 14.5364 41.1636 14.741 41.2551 14.9165C42.7316 17.7165 43.5022 20.8346 43.5 24C42.4312 49.8653 5.56855 49.8656 4.5 23.9999C4.31938 9.53864 20.4002 -0.154241 33.0836 6.74514C33.2594 6.83836 33.4649 6.85795 33.6551 6.7996C33.8453 6.74125 34.0045 6.60975 34.0977 6.43401C34.191 6.25827 34.2106 6.05269 34.1522 5.86251C34.0939 5.67232 33.9624 5.51311 33.7866 5.41989C30.77 3.82859 27.4106 2.99791 24 3C-3.85532 4.15092 -3.855 43.8496 24 45Z"
    fill="#2C5648" />
  <path
    d="M24 18C24.6494 17.9996 25.2943 18.1074 25.9083 18.3189C26.0964 18.3837 26.3024 18.3711 26.4812 18.284C26.6599 18.1968 26.7968 18.0422 26.8616 17.8542C27.1911 16.5275 24.8551 16.5804 24.0001 16.4999C14.0515 16.9111 14.0519 31.0893 24.0001 31.5C25.9885 31.4978 27.8948 30.7069 29.3009 29.3008C30.7069 27.8948 31.4978 25.9884 31.5 24C31.4234 23.1294 31.4741 20.8178 30.1532 21.146C30.06 21.1781 29.9741 21.2281 29.9003 21.2934C29.8265 21.3587 29.7663 21.4378 29.7232 21.5264C29.68 21.6149 29.6547 21.7111 29.6487 21.8094C29.6427 21.9077 29.6562 22.0062 29.6884 22.0993C29.8971 22.7112 30.0024 23.3535 30 24C29.6992 31.9475 18.3007 31.9478 18 23.9999C18.0018 22.4092 18.6346 20.8841 19.7594 19.7593C20.8842 18.6345 22.4093 18.0018 24 18Z"
    fill="#2C5648" />
  <path
    d="M31.181 12.5511C31.2288 12.465 31.2591 12.3703 31.2703 12.2725C31.2815 12.1746 31.2733 12.0755 31.2461 11.9808C31.219 11.8862 31.1735 11.7978 31.1122 11.7207C31.0508 11.6436 30.9749 11.5794 30.8888 11.5316C28.7802 10.3645 26.41 9.75149 24 9.75C5.09819 10.5312 5.09844 37.4691 24.0001 38.25C26.479 38.2514 28.9153 37.6059 31.0681 36.3771C33.221 35.1483 35.0158 33.3788 36.2752 31.2437C37.5345 29.1086 38.2148 26.6817 38.2487 24.2031C38.2826 21.7245 37.6689 19.2799 36.4684 17.1112C36.4208 17.0246 36.3567 16.9483 36.2796 16.8867C36.2025 16.825 36.114 16.7791 36.0191 16.7517C35.9243 16.7243 35.8249 16.7159 35.7268 16.727C35.6287 16.7381 35.5338 16.7685 35.4474 16.8163C35.3611 16.8642 35.285 16.9287 35.2236 17.006C35.1623 17.0834 35.1168 17.1721 35.0897 17.267C35.0627 17.362 35.0547 17.4614 35.0662 17.5594C35.0777 17.6575 35.1084 17.7523 35.1566 17.8385C39.9105 26.0831 33.5243 36.9151 23.9998 36.7499C20.6195 36.7461 17.3787 35.4016 14.9885 33.0114C12.5982 30.6211 11.2537 27.3803 11.25 24C11.0866 14.4757 21.9158 8.08881 30.1616 12.8436C30.2477 12.8915 30.3424 12.922 30.4403 12.9332C30.5382 12.9444 30.6373 12.9362 30.7321 12.9091C30.8268 12.8819 30.9152 12.8363 30.9922 12.7749C31.0693 12.7134 31.1334 12.6374 31.181 12.5511Z"
    fill="#2C5648" />
  <path
    d="M32.6429 10.4238L32.9184 14.021L23.4697 23.4697C23.3339 23.6113 23.2589 23.8005 23.2609 23.9968C23.263 24.193 23.3418 24.3807 23.4806 24.5194C23.6194 24.6582 23.807 24.737 24.0033 24.7391C24.1995 24.7411 24.3887 24.6661 24.5303 24.5302L33.9789 15.0816L37.5762 15.357C37.684 15.3653 37.7923 15.3501 37.8937 15.3126C37.9951 15.275 38.0871 15.216 38.1636 15.1395L43.6223 9.68113C43.7216 9.57886 43.79 9.45056 43.8195 9.31106C43.8489 9.17157 43.8383 9.02658 43.7888 8.89288C43.7393 8.75918 43.6529 8.64223 43.5397 8.55555C43.4265 8.46887 43.2911 8.416 43.1491 8.40307L39.8496 8.15038L39.5969 4.85078C39.5839 4.70883 39.531 4.57346 39.4443 4.46032C39.3576 4.34717 39.2407 4.26087 39.107 4.21139C38.9733 4.16191 38.8284 4.15127 38.6889 4.1807C38.5494 4.21013 38.4211 4.27843 38.3188 4.3777L32.8605 9.83638C32.784 9.91277 32.7249 10.0048 32.6873 10.1062C32.6498 10.2076 32.6346 10.316 32.6429 10.4238ZM38.2258 6.59175C38.526 10.0845 37.9353 9.46966 41.4082 9.7741L37.3469 13.835L34.3912 13.6087L34.1649 10.653L38.2258 6.59175Z"
    fill="#2C5648" />
</svg>