<svg width="72" height="72" viewBox="0 0 72 72" fill="none" xmlns="http://www.w3.org/2000/svg">
  <path
    d="M70.533 46.0049L62.1035 31.4047C61.88 31.0176 61.385 30.8851 60.9979 31.1086L60.9978 31.1088L48.8373 38.133C48.4504 38.356 48.3175 38.8507 48.5405 39.2376L48.541 39.2382L54.91 50.2678H44.7039V44.9063C44.7041 44.4593 44.3419 44.097 43.8949 44.0968C43.6674 44.0968 43.4506 44.1924 43.2972 44.3602L31.2117 57.5778C30.9294 57.8872 30.9294 58.361 31.2117 58.6704L43.2972 71.8883C43.5987 72.2183 44.1105 72.2414 44.4405 71.9399C44.6085 71.7865 44.7041 71.5693 44.7039 71.3419V65.9425H57.7164C61.5101 65.936 65.0139 63.9119 66.9149 60.6289L70.5324 54.3676C72.0259 51.7802 72.0261 48.5927 70.533 46.0049ZM61.1069 32.9151L67.3942 43.8032C70.3266 49.0746 60.6919 49.9942 56.7703 50.2515L50.3476 39.1297L61.1069 32.9151ZM69.1318 53.5567L69.131 53.5572L65.513 59.8192C63.9019 62.6023 60.9322 64.3181 57.7166 64.3239H43.8947C43.4477 64.3239 43.0855 64.6863 43.0855 65.1331V69.2574L32.9062 58.124L43.0855 46.9906V51.0775C43.0855 51.5243 43.4478 51.8867 43.8947 51.8867C49.4302 51.5026 66.0251 53.6913 69.304 47.1325C70.3363 49.1655 70.2715 51.5823 69.1318 53.5567Z"
    fill="white" />
  <path
    d="M60.4127 14.2986C60.1525 14.0895 59.7906 14.0617 59.5015 14.2286L54.8261 16.9281L48.3195 5.65898C46.4171 2.3773 42.9129 0.355062 39.1195 0.350054L31.888 0.347778C28.9 0.347627 26.1386 1.9415 24.6441 4.52897L16.2148 19.1294C15.9945 19.5169 16.1266 20.0096 16.5113 20.235L28.6748 27.2542C29.062 27.4769 29.5566 27.3443 29.7804 26.9577L36.148 15.9275L41.251 24.7661L36.6079 27.4469C36.222 27.6784 36.0969 28.1789 36.3284 28.5649C36.4412 28.7527 36.6248 28.8873 36.838 28.9383C37.1976 28.9817 54.1242 32.8004 54.5028 32.8139C54.8554 32.8136 55.1671 32.5849 55.2735 32.2488L60.6777 15.1741C60.7789 14.8556 60.6736 14.5077 60.4127 14.2986ZM28.7828 25.4475L18.0211 19.2373L24.3076 8.34796C27.3638 3.16589 33.0485 11.0711 35.204 14.325L28.7828 25.4475ZM53.9536 31.0548L39.2221 27.8062L42.7611 25.7633C43.1458 25.538 43.2778 25.0451 43.0575 24.6576C39.9752 20.0731 33.5261 4.56463 26.2348 5.02941C27.4797 3.1187 29.6059 1.96654 31.8864 1.96654L39.1185 1.96882C42.3338 1.97276 45.3044 3.68666 46.9173 6.46836L53.8286 18.4384C54.0523 18.8253 54.5471 18.9579 54.9342 18.7347L58.5057 16.6724L53.9536 31.0548Z"
    fill="white" />
  <path
    d="M29.9406 50.2058C29.9406 49.7587 29.5782 49.3965 29.1314 49.3965L16.3954 49.3973L21.4984 40.5584L26.1415 43.2392C26.5286 43.4626 27.0235 43.33 27.2469 42.9429C27.3604 42.7461 27.386 42.5106 27.3175 42.294L21.9134 25.2192C21.787 24.8197 21.3765 24.5828 20.9674 24.6731L3.47774 28.5302C3.04134 28.6264 2.76547 29.0582 2.86183 29.4948C2.91084 29.7168 3.0509 29.908 3.24786 30.0215L7.92327 32.7208L1.41742 43.9905C-0.473569 47.2792 -0.472355 51.3256 1.4206 54.6131L5.03308 60.876C6.52514 63.4604 9.28119 65.0543 12.2655 65.0585C12.2714 65.0645 29.1267 65.0543 29.1347 65.0585C29.5817 65.0585 29.9439 64.6962 29.9439 64.2493L29.9406 50.2058ZM11.6291 63.0047C11.7145 63.1527 11.8095 63.2949 11.9136 63.4304C9.63702 63.3078 7.57669 62.0432 6.43667 60.0687L2.82253 53.804C1.21727 51.0174 1.21606 47.5873 2.81934 44.7997L9.72989 32.8291C9.9534 32.442 9.82078 31.947 9.43369 31.7235L9.43338 31.7234L5.86203 29.6618L20.5934 26.4128L25.1456 40.7948L21.6066 38.7515C21.2195 38.528 20.7245 38.6606 20.501 39.0477L20.5008 39.0479C17.9436 44.2448 8.46726 56.4576 11.6291 63.0047ZM15.7506 63.441C9.72154 63.3448 13.7419 54.5408 15.4798 51.0158L28.322 51.015L28.3252 63.4402L15.7506 63.441Z"
    fill="white" />
</svg>