<svg width="33" height="33" viewBox="0 0 33 33" fill="none" xmlns="http://www.w3.org/2000/svg">
<g clip-path="url(#clip0_173_666)">
<path d="M23.1085 6.38724L23.4251 2.07605L20.2767 5.00286L21.0676 7.01618L23.1085 6.38724Z" fill="#D7FFB1"/>
<path d="M17.8269 24.7111C22.3609 23.9761 25.4406 19.7047 24.7056 15.1707C23.9706 10.6367 19.6992 7.55699 15.1652 8.29198C10.6313 9.02697 7.55158 13.2983 8.28658 17.8324C9.02158 22.3664 13.2929 25.4461 17.8269 24.7111Z" fill="#D7FFB1"/>
<path d="M11.9332 7.01616L12.719 5.01572L9.55801 2.08447L9.87901 6.38316L11.9332 7.01616Z" fill="#D7FFB1"/>
<path d="M18.896 6.59894L16.5004 0.5L14.1048 6.59894C14.8734 6.41294 15.6755 6.31369 16.5004 6.31369C17.3253 6.31369 18.1274 6.41294 18.896 6.59894Z" fill="#D7FFB1"/>
<path d="M32.0993 20.0603L26.685 16.3668C26.6856 16.4112 26.6867 16.4555 26.6867 16.5C26.6867 18.1301 26.3012 19.6716 25.6176 21.0391L32.0993 20.0603Z" fill="#D7FFB1"/>
<path d="M25.7339 12.2016L29.0097 6.52417L22.7419 8.45561C24.0134 9.44436 25.0449 10.7274 25.7339 12.2016Z" fill="#D7FFB1"/>
<path d="M26.7627 14.1576L28.5288 15.3624L32.0957 12.9238L27.8426 12.286L26.7627 14.1576Z" fill="#D7FFB1"/>
<path d="M14.9294 28.4831L16.5101 32.5L18.0814 28.4924L16.5004 27.0262L14.9294 28.4831Z" fill="#D7FFB1"/>
<path d="M9.5582 30.9154L14.3628 26.4599C12.7503 26.1142 11.2781 25.3861 10.0465 24.3749L9.5582 30.9154Z" fill="#D7FFB1"/>
<path d="M18.6379 26.46L23.4425 30.9156L22.9543 24.375C21.7226 25.3862 20.2504 26.1142 18.6379 26.46Z" fill="#D7FFB1"/>
<path d="M24.7301 23.063L24.8894 25.1973L29.0178 26.4657L26.8645 22.7407L24.7301 23.063Z" fill="#D7FFB1"/>
<path d="M10.2589 8.45567L3.991 6.52417L7.26681 12.2017C7.95581 10.7275 8.98737 9.44448 10.2589 8.45567Z" fill="#D7FFB1"/>
<path d="M6.23807 14.1577L5.16513 12.2981L0.900757 12.943L4.46051 15.3703L6.23807 14.1577Z" fill="#D7FFB1"/>
<path d="M3.99512 26.4811L8.1103 25.2111L8.27068 23.063L6.14993 22.7428L3.99512 26.4811Z" fill="#D7FFB1"/>
<path d="M6.31408 16.4999C6.31408 16.4554 6.31521 16.4111 6.31577 16.3667L0.901581 20.0603L7.38327 21.0391C6.69958 19.6715 6.31408 18.13 6.31408 16.4999Z" fill="#D7FFB1"/>
</g>
<defs>
<clipPath id="clip0_173_666">
<rect width="32" height="32" fill="white" transform="translate(0.5 0.5)"/>
</clipPath>
</defs>
</svg>
